<svg version="1.1" viewBox="0.0 0.0 96.0 96.0" fill="none" stroke="none" stroke-linecap="square" stroke-miterlimit="10" xmlns:xlink="http://www.w3.org/1999/xlink" xmlns="http://www.w3.org/2000/svg"><clipPath id="p.0"><path d="m0 0l96.0 0l0 96.0l-96.0 0l0 -96.0z" clip-rule="nonzero"/></clipPath><g clip-path="url(#p.0)"><path fill="#000000" fill-opacity="0.0" d="m0 0l96.0 0l0 96.0l-96.0 0z" fill-rule="evenodd"/><path fill="#000000" fill-opacity="0.0" d="m2.6141732 48.0l0 0c0 -25.0659 20.319925 -45.385826 45.385826 -45.385826l0 0c12.037071 0 23.581131 4.781708 32.09263 13.293201c8.51149 8.511493 13.293198 20.055553 13.293198 32.092625l0 0c0 25.065903 -20.319923 45.385826 -45.385826 45.385826l0 0c-25.0659 0 -45.385826 -20.319923 -45.385826 -45.385826z" fill-rule="evenodd"/><path stroke="#000000" stroke-width="4.0" stroke-linejoin="round" stroke-linecap="butt" d="m2.6141732 48.0l0 0c0 -25.0659 20.319925 -45.385826 45.385826 -45.385826l0 0c12.037071 0 23.581131 4.781708 32.09263 13.293201c8.51149 8.511493 13.293198 20.055553 13.293198 32.092625l0 0c0 25.065903 -20.319923 45.385826 -45.385826 45.385826l0 0c-25.0659 0 -45.385826 -20.319923 -45.385826 -45.385826z" fill-rule="evenodd"/><path fill="#000000" fill-opacity="0.0" d="m80.09263 15.907374l-64.18898 64.18898" fill-rule="evenodd"/><path stroke="#000000" stroke-width="8.0" stroke-linejoin="round" stroke-linecap="butt" d="m80.09263 15.907374l-64.18898 64.18898" fill-rule="evenodd"/></g></svg>